<svg xmlns="http://www.w3.org/2000/svg" viewBox="0 0 512 512" width="100%" height="100%">
  <rect width="512" height="512" rx="110" fill="#007AFF"/>
  
  <path d="M160 112c-26.5 0-48 21.5-48 48v240c0 26.5 21.5 48 48 48h208c8.8 0 16-7.2 16-16V128c0-8.8-7.2-16-16-16H160zm0 32h176v224H160c-8.8 0-16-7.2-16-16V160c0-8.8 7.2-16 16-16zm48 48c-8.8 0-16 7.2-16 16s7.2 16 16 16h80c8.8 0 16-7.2 16-16s-7.2-16-16-16h-80zm0 64c-8.8 0-16 7.2-16 16s7.2 16 16 16h80c8.8 0 16-7.2 16-16s-7.2-16-16-16h-80z" fill="#FFFFFF"/>
</svg>
